<svg xmlns="http://www.w3.org/2000/svg" xmlns:svg="http://www.w3.org/2000/svg" id="svg5403" width="100" height="146" version="1.1" viewBox="0 0 26.458 38.629"><metadata id="metadata5400"/><g id="layer1" transform="translate(0,-258.37081)"><rect id="rect6068" width="26.458" height="38.629" x="0" y="258.371" fill="#fff" fill-opacity="1" stroke="none" stroke-dasharray="none" stroke-dashoffset="0" stroke-linecap="round" stroke-linejoin="round" stroke-miterlimit="4" stroke-opacity="1" stroke-width=".9" opacity="1" paint-order="stroke fill markers" rx="3.177" ry="3.177" vector-effect="none"/><rect id="rect6068-3" width="24.871" height="37.042" x=".794" y="259.165" fill="#000" fill-opacity="1" stroke="none" stroke-dasharray="none" stroke-dashoffset="0" stroke-linecap="round" stroke-linejoin="round" stroke-miterlimit="4" stroke-opacity="1" stroke-width=".9" opacity="1" paint-order="stroke fill markers" rx="2.646" ry="2.646" vector-effect="none"/><rect id="rect6068-3-8" width="22.768" height="34.933" x="1.852" y="260.223" fill="#fff" fill-opacity="1" stroke="none" stroke-dasharray="none" stroke-dashoffset="0" stroke-linecap="round" stroke-linejoin="round" stroke-miterlimit="4" stroke-opacity="1" stroke-width=".9" opacity="1" paint-order="stroke fill markers" rx="1.866" ry="1.844" vector-effect="none"/><g id="g5078" stroke-width="1.074" transform="matrix(0.93069965,0,0,0.93069965,0.93635628,8.3253052)"><circle id="path6188" cx="13.229" cy="279.527" r="6.87" fill="#c1121c" fill-opacity="1" stroke="none" stroke-dasharray="none" stroke-dashoffset="0" stroke-linecap="round" stroke-linejoin="round" stroke-miterlimit="4" stroke-opacity="1" stroke-width=".967" opacity="1" paint-order="stroke fill markers" vector-effect="none"/><ellipse id="path6207" cx="13.229" cy="279.535" fill="#fff" fill-opacity="1" stroke="none" stroke-dasharray="none" stroke-dashoffset="0" stroke-linecap="round" stroke-linejoin="round" stroke-miterlimit="4" stroke-opacity="1" stroke-width=".967" opacity="1" paint-order="stroke fill markers" rx="5.137" ry="5.137" vector-effect="none"/></g><flowRoot id="flowRoot5080" fill="#000" fill-opacity="1" stroke="none" stroke-linecap="butt" stroke-linejoin="miter" stroke-opacity="1" stroke-width="1" font-family="Roboto Condensed" font-size="5.333" font-stretch="normal" font-style="normal" font-variant="normal" font-weight="normal" letter-spacing="0" word-spacing="0" xml:space="preserve" style="line-height:25px;-inkscape-font-specification:'Roboto Condensed, '"><flowRegion id="flowRegion5082"><rect id="rect5084" width="28" height="8" x="36" y="126"/></flowRegion><flowPara id="flowPara5086"/></flowRoot><text id="text5090" x="13.265" y="280.174" fill="#000" fill-opacity="1" stroke="none" stroke-linecap="butt" stroke-linejoin="miter" stroke-opacity="1" stroke-width=".265" font-family="Roboto" font-size="4.939" font-stretch="normal" font-style="normal" font-variant="normal" font-weight="bold" letter-spacing="0" text-anchor="middle" word-spacing="0" xml:space="preserve" style="line-height:4.93888903px;-inkscape-font-specification:'Roboto Bold';text-align:center"><tspan font-stretch="normal" style="line-height:4.93888903px;-inkscape-font-specification:'Roboto Medium';text-align:center" id="tspan5092" x="13.265" y="280.174" stroke-width=".265" font-family="Roboto" font-size="4.939" font-style="normal" font-variant="normal" font-weight="500" text-anchor="middle">SHARED</tspan><tspan font-stretch="normal" style="line-height:4.93888903px;-inkscape-font-specification:'Roboto Medium';text-align:center" id="tspan5096" x="13.265" y="285.113" stroke-width=".265" font-family="Roboto" font-size="4.939" font-style="normal" font-variant="normal" font-weight="500" text-anchor="middle">ZONE</tspan></text><text id="text5100" x="9.138" y="271.201" fill="#000" fill-opacity="1" stroke="none" stroke-linecap="butt" stroke-linejoin="miter" stroke-opacity="1" stroke-width=".265" font-family="Roboto Condensed" font-size="1.411" font-stretch="normal" font-style="normal" font-variant="normal" font-weight="normal" letter-spacing="0" word-spacing="0" xml:space="preserve" style="line-height:6.61458302px;-inkscape-font-specification:'Roboto Condensed, '"><tspan id="tspan5098" x="9.138" y="271.201" stroke-width=".265" font-family="Roboto Condensed" font-size="7.761" font-stretch="normal" font-style="normal" font-variant="normal" font-weight="bold" style="-inkscape-font-specification:'Roboto Condensed, Bold'">10</tspan></text><path id="path6554" fill="#000" fill-opacity="1" fill-rule="nonzero" stroke="none" stroke-width=".022" d="m 15.375462,287.02141 c -0.907438,0.45357 -1.134372,2.72143 -1.134372,2.72143 -0.480931,0.12665 -1.143035,0.52157 -1.14323,0.92486 l 0.0089,0.88942 c 4.5e-4,0.45358 0.227229,0.68036 0.907586,0.68036 v 1.13393 c 0,0 -0.06224,0.44161 0.226786,0.45357 h 1.133928 c 0.283555,0 0.226786,-0.45357 0.226786,-0.45357 v -0.90714 h 5.18463 v 0.90714 c 0,0 -0.05545,0.45357 0.228114,0.45357 h 1.134371 c 0.283556,0 0.225015,-0.45357 0.225015,-0.45357 v -1.13393 c 0.680357,0 0.907284,-0.22678 0.909357,-0.68036 v -0.90714 c -0.123512,-0.42427 -0.739166,-0.77977 -1.134372,-0.90714 0,0 -0.228707,-2.26786 -1.134371,-2.72143 z m 0.566964,0.90714 h 4.505159 c 0.567113,0.68036 0.566963,1.81429 0.566963,1.81429 h -5.639086 c 0,0 -1.5e-4,-1.13393 0.566964,-1.81429 z m -1.260167,2.49509 c 0.375753,0 0.68036,0.30461 0.680358,0.68036 -4e-6,0.37575 -0.304609,0.68035 -0.680358,0.68035 -0.375748,0 -0.680353,-0.3046 -0.680357,-0.68035 -10e-7,-0.37575 0.304605,-0.68036 0.680357,-0.68036 z m 7.011761,0 c 0.375752,0 0.680359,0.30461 0.680357,0.68036 -4e-6,0.37575 -0.304609,0.68035 -0.680357,0.68035 -0.375748,0 -0.680354,-0.3046 -0.680358,-0.68035 -2e-6,-0.37575 0.304606,-0.68036 0.680358,-0.68036 z"/><g id="g6685" stroke-dasharray="none" stroke-miterlimit="4" stroke-width="3.582" transform="matrix(0.29923405,0,0,0.29175929,5.6182845,205.29504)"><path id="path5253" fill="none" fill-opacity="1" fill-rule="evenodd" stroke="#000" stroke-dasharray="none" stroke-linecap="round" stroke-linejoin="miter" stroke-miterlimit="4" stroke-opacity="1" stroke-width="3.134" d="m 13.473487,301.69234 c -3.419509,-2.98349 -3.7212552,-5.81487 -3.9545764,-9.13974 -2.870119,3.03689 -3.629116,5.76297 -4.233333,9.13974" paint-order="stroke fill markers"/><path id="path5255" fill="none" fill-opacity="1" fill-rule="evenodd" stroke="#000" stroke-dasharray="none" stroke-linecap="butt" stroke-linejoin="miter" stroke-miterlimit="4" stroke-opacity="1" stroke-width="3.134" d="m 9.5189061,286.87567 c 0.4651864,1.76389 0.1148196,4.12707 -0.2140286,5.89096" paint-order="stroke fill markers"/><path id="path5261" fill="none" fill-opacity="1" fill-rule="evenodd" stroke="#000" stroke-dasharray="none" stroke-linecap="round" stroke-linejoin="round" stroke-miterlimit="4" stroke-opacity="1" stroke-width="3.134" d="m 13.259457,292.46091 c 0.02208,-2.46819 -1.032523,-4.49567 -3.7405509,-5.58524 -1.9409701,1.65899 -2.9533555,4.12935 -6.2761845,5.75071" paint-order="stroke fill markers"/><ellipse id="path6687" cx="9.352" cy="281.389" fill="#000" fill-opacity="1" stroke="none" stroke-dasharray="none" stroke-dashoffset="0" stroke-linecap="butt" stroke-linejoin="miter" stroke-miterlimit="4" stroke-opacity="1" stroke-width="3.582" opacity="1" paint-order="stroke fill markers" rx="3.268" ry="3.352" vector-effect="none"/></g></g></svg>