<svg xmlns="http://www.w3.org/2000/svg" xmlns:svg="http://www.w3.org/2000/svg" id="svg8" width="112" height="112" version="1.1" viewBox="0 0 112 112"><metadata id="metadata5"/><g id="layer1" transform="translate(0,-267.36665)"><circle id="path4487" cx="56" cy="323.367" r="55.751" fill="#fff" fill-opacity="1" stroke="none" stroke-dasharray="none" stroke-dashoffset="0" stroke-linecap="round" stroke-linejoin="round" stroke-miterlimit="4" stroke-opacity="1" stroke-width=".5" paint-order="fill markers stroke"/><path id="path4498" fill="#000" fill-opacity="1" stroke="none" stroke-linecap="butt" stroke-linejoin="miter" stroke-opacity="1" stroke-width=".996" d="m 56,301.36665 -18,-18 h 36 z"/><path id="path4498-0" fill="#000" fill-opacity="1" stroke="none" stroke-linecap="butt" stroke-linejoin="miter" stroke-opacity="1" stroke-width=".996" d="m 56,345.36665 18,18 H 38 Z"/><path id="path4491" fill="#c1121c" fill-opacity="1" stroke="none" stroke-dasharray="none" stroke-dashoffset="0" stroke-linecap="round" stroke-linejoin="round" stroke-miterlimit="4" stroke-opacity="1" stroke-width=".498" d="m 56,269.36665 c -29.690833,0 -54.0000027,24.30917 -54,54 2.7e-6,29.69083 24.309171,54 54,54 29.690829,0 54,-24.30917 54,-54 1e-5,-29.69083 -24.309168,-54 -54,-54 z m 0,14 c 21.993221,0 40.000014,18.00679 40,40 -1.4e-5,21.99321 -18.006799,40 -40,40 -21.993201,0 -39.999986,-18.00679 -40,-40 -1.4e-5,-21.99321 18.006779,-40 40,-40 z" paint-order="fill markers stroke"/></g></svg>