<svg xmlns="http://www.w3.org/2000/svg" xmlns:svg="http://www.w3.org/2000/svg" id="svg68" width="80" height="64" version="1.1"><metadata id="metadata74"/><path id="polygon4-8" fill="#e1d9af" d="m 74.999999,19 h -6 l 11,18 V 26 Z"/><path id="polygon2" fill="#d7d7d7" d="m 31.999999,-2.0000008e-8 h 16 L 66.999999,64 h -54 z"/><path id="polygon4" fill="#e1d9af" d="M 4.9999995,19 H 10.999999 L 0,37 V 26 Z"/><path id="polygon6" fill="#e1d9af" d="m 15.999999,19 h 6 l -9,23 H 3.9999995 Z"/><path id="polygon6-1" fill="#e1d9af" d="m 63.999999,19 h -6 l 9,23 h 9 z"/><path id="polygon16" fill="#727272" d="M 67.999999,60 V 39 h 10 v 21 z"/><path id="polygon12" fill="#8c7570" d="m 0,22 h 79.999999 v 2 H 0 Z"/><path id="polygon14" fill="#8c7570" d="m 0,35 h 79.999999 v 3 H 0 Z"/><rect id="rect32" width="16" height="8" x="42" y="42" fill="red"/><rect id="rect30" width="16" height="8" x="58" y="42" fill="#fff" fill-opacity="1"/><rect id="rect4716" width="32" height="8" x="42" y="42" fill="none" fill-opacity=".2" stroke="#727272" stroke-dasharray="none" stroke-dashoffset="0" stroke-linecap="round" stroke-linejoin="miter" stroke-miterlimit="4" stroke-opacity="1" stroke-width="2" paint-order="fill markers stroke"/><rect id="rect32-3" width="8" height="4" x="-39" y="5" fill="red" stroke-width=".5" transform="scale(-1,1)"/><path id="polygon16-0" fill="#727272" stroke-width=".5" d="M 25.999999,14 V 3 h -5 v 11 z"/><rect id="rect30-5" width="8" height="4" x="-31" y="5" fill="#fff" fill-opacity="1" stroke-width=".5" transform="scale(-1,1)"/><rect id="rect4716-8" width="16.113" height="4.113" x="-39" y="5" fill="none" fill-opacity=".2" stroke="#727272" stroke-dasharray="none" stroke-dashoffset="0" stroke-linecap="round" stroke-linejoin="miter" stroke-miterlimit="4" stroke-opacity="1" stroke-width="1" paint-order="fill markers stroke" transform="scale(-1,1)"/><path id="polygon16-1" fill="#727272" d="m 12,60.000008 v -21 H 2 v 21 z"/><rect id="rect32-0" width="16" height="8" x="-38" y="42" fill="red" transform="scale(-1,1)"/><rect id="rect30-4" width="16" height="8" x="-22" y="42" fill="#fff" fill-opacity="1" transform="scale(-1,1)"/><rect id="rect4716-9" width="32" height="8" x="-38" y="42" fill="none" fill-opacity=".2" stroke="#727272" stroke-dasharray="none" stroke-dashoffset="0" stroke-linecap="round" stroke-linejoin="miter" stroke-miterlimit="4" stroke-opacity="1" stroke-width="2" paint-order="fill markers stroke" transform="scale(-1,1)"/><rect id="rect32-3-6" width="8" height="4" x="41" y="5" fill="red" stroke-width=".5"/><path id="polygon16-0-5" fill="#727272" stroke-width=".5" d="M 53.999996,14 V 2.9999995 h 5 V 14 Z"/><rect id="rect30-5-3" width="8" height="4" x="49" y="5" fill="#fff" fill-opacity="1" stroke-width=".5"/><rect id="rect4716-8-0" width="16.113" height="4.113" x="41" y="5" fill="none" fill-opacity=".2" stroke="#727272" stroke-dasharray="none" stroke-dashoffset="0" stroke-linecap="round" stroke-linejoin="miter" stroke-miterlimit="4" stroke-opacity="1" stroke-width="1" paint-order="fill markers stroke"/></svg>