<svg xmlns="http://www.w3.org/2000/svg" xmlns:svg="http://www.w3.org/2000/svg" id="svg58" width="80" height="64" version="1.1"><metadata id="metadata64"/><path id="polygon4-8" fill="#e1d9af" d="M 75,19 H 69 L 80,37 V 26 Z"/><path id="polygon2" fill="#d7d7d7" d="M 32,0 H 48 L 67,64 H 13 Z"/><path id="polygon4" fill="#e1d9af" d="m 5,19 h 6 L 0,37 V 26 Z"/><path id="polygon6" fill="#e1d9af" d="m 16,19 h 6 L 13,42 H 4 Z"/><path id="polygon6-1" fill="#e1d9af" d="m 64,19 h -6 l 9,23 h 9 z"/><path id="polygon16" fill="#727272" d="M 68,60 V 39 h 10 v 21 z"/><path id="polygon12" fill="#8c7570" d="m 0,22 h 80 v 2 H 0 Z"/><path id="polygon14" fill="#8c7570" d="m 0,35 h 80 v 3 H 0 Z"/><rect id="rect32" width="16" height="8" x="42" y="42" fill="red"/><rect id="rect30" width="16" height="8" x="58" y="42" fill="#fff" fill-opacity="1"/><rect id="rect32-2" width="16" height="8" x="10" y="42" fill="red"/><rect id="rect30-1" width="16" height="8" x="26" y="42" fill="#fff" fill-opacity="1"/><rect id="rect4716" width="64" height="8" x="10" y="42" fill="none" fill-opacity=".2" stroke="#727272" stroke-dasharray="none" stroke-dashoffset="0" stroke-linecap="round" stroke-linejoin="miter" stroke-miterlimit="4" stroke-opacity="1" stroke-width="2" paint-order="fill markers stroke"/><rect id="rect32-3" width="8" height="4" x="-39" y="5" fill="red" stroke-width=".5" transform="scale(-1,1)"/><path id="polygon16-0" fill="#727272" stroke-width=".5" d="M 26,14 V 3 h -5 v 11 z"/><rect id="rect30-5" width="8" height="4" x="-31" y="5" fill="#fff" fill-opacity="1" stroke-width=".5" transform="scale(-1,1)"/><rect id="rect32-2-2" width="8" height="4" x="-55" y="5" fill="red" stroke-width=".5" transform="scale(-1,1)"/><rect id="rect30-1-0" width="8" height="4" x="-47" y="5" fill="#fff" fill-opacity="1" stroke-width=".5" transform="scale(-1,1)"/><rect id="rect4716-8" width="32.226" height="4.225" x="-55.113" y="4.887" fill="none" fill-opacity=".2" stroke="#727272" stroke-dasharray="none" stroke-dashoffset="0" stroke-linecap="round" stroke-linejoin="miter" stroke-miterlimit="4" stroke-opacity="1" stroke-width="1" paint-order="fill markers stroke" transform="scale(-1,1)"/></svg>